<?xml version="1.0" encoding="utf-8"?>
<!-- Generator: Adobe Illustrator 19.1.0, SVG Export Plug-In . SVG Version: 6.00 Build 0)  -->
<!DOCTYPE svg PUBLIC "-//W3C//DTD SVG 1.1//EN" "http://www.w3.org/Graphics/SVG/1.1/DTD/svg11.dtd">
<svg version="1.1" id="Calque_1" xmlns="http://www.w3.org/2000/svg" xmlns:xlink="http://www.w3.org/1999/xlink" x="0px" y="0px"
	 viewBox="0 0 40 40" style="enable-background:new 0 0 40 40;" xml:space="preserve">
<style type="text/css">
	.st0{clip-path:url(#SVGID_2_);}
	.st1{clip-path:url(#SVGID_4_);fill:#FFFFFF;}
</style>
<g>
	<g>
		<defs>
			<rect id="SVGID_1_" width="40" height="40"/>
		</defs>
		<clipPath id="SVGID_2_">
			<use xlink:href="#SVGID_1_"  style="overflow:visible;"/>
		</clipPath>
		<g class="st0">
			<defs>
				<rect id="SVGID_3_" width="40" height="40"/>
			</defs>
			<clipPath id="SVGID_4_">
				<use xlink:href="#SVGID_3_"  style="overflow:visible;"/>
			</clipPath>
			<path class="st1" d="M19.9,4.2c-3.2,0-6.2,1-8.6,2.6v19.6H8.5V9.2C5.8,12,4.2,15.8,4.2,20c0,8.7,7,15.7,15.7,15.7
				c8.7,0,15.7-7,15.7-15.7C35.7,11.3,28.6,4.2,19.9,4.2 M19.6,21.4l-5.7,4.9l0-9.9l0-9.9l5.7,4.9l5.7,5L19.6,21.4z"/>
			<path class="st1" d="M19.9,39.9C8.9,39.9,0,30.9,0,20S8.9,0,19.9,0C30.9,0,39.9,9,39.9,20S30.9,39.9,19.9,39.9 M19.9,1.2
				C9.6,1.2,1.2,9.6,1.2,20s8.4,18.7,18.7,18.7S38.7,30.3,38.7,20S30.3,1.2,19.9,1.2"/>
		</g>
	</g>
</g>
</svg>
