<?xml version="1.0" encoding="utf-8"?>
<!-- Generator: Adobe Illustrator 19.1.0, SVG Export Plug-In . SVG Version: 6.00 Build 0)  -->
<!DOCTYPE svg PUBLIC "-//W3C//DTD SVG 1.1//EN" "http://www.w3.org/Graphics/SVG/1.1/DTD/svg11.dtd">
<svg version="1.1" id="Calque_1" xmlns="http://www.w3.org/2000/svg" xmlns:xlink="http://www.w3.org/1999/xlink" x="0px" y="0px"
	 viewBox="0 0 40 40" style="enable-background:new 0 0 40 40;" xml:space="preserve">
<style type="text/css">
	.st0{clip-path:url(#SVGID_2_);}
	.st1{clip-path:url(#SVGID_4_);fill:#FFFFFF;}
</style>
<g>
	<g>
		<defs>
			<rect id="SVGID_1_" width="40" height="40"/>
		</defs>
		<clipPath id="SVGID_2_">
			<use xlink:href="#SVGID_1_"  style="overflow:visible;"/>
		</clipPath>
		<g class="st0">
			<defs>
				<rect id="SVGID_3_" width="40" height="40"/>
			</defs>
			<clipPath id="SVGID_4_">
				<use xlink:href="#SVGID_3_"  style="overflow:visible;"/>
			</clipPath>
			<path class="st1" d="M20,39.8C9.1,39.8,0.2,30.9,0.2,20S9.1,0.2,20,0.2S39.8,9.1,39.8,20S30.9,39.8,20,39.8 M20,1.4
				C9.8,1.4,1.4,9.8,1.4,20c0,10.2,8.3,18.6,18.6,18.6c10.2,0,18.6-8.3,18.6-18.6C38.6,9.8,30.2,1.4,20,1.4"/>
			<path class="st1" d="M20,4.4c-6.9,0-12.7,4.5-14.8,10.7h3.5v-4.3h2.6v4.3h4.4v2.5h-4.4v4.3H8.8v-4.3H4.6
				c-0.1,0.8-0.2,1.6-0.2,2.5c0,8.6,7,15.6,15.6,15.6c8.6,0,15.6-7,15.6-15.6S28.6,4.4,20,4.4 M21.4,24.2h-2.8V12.3h2.8V24.2z
				 M21.5,10.5h-3V7.9h3V10.5z"/>
		</g>
	</g>
</g>
</svg>
