<?xml version="1.0" encoding="utf-8"?>
<!-- Generator: Adobe Illustrator 19.1.0, SVG Export Plug-In . SVG Version: 6.00 Build 0)  -->
<!DOCTYPE svg PUBLIC "-//W3C//DTD SVG 1.1//EN" "http://www.w3.org/Graphics/SVG/1.1/DTD/svg11.dtd">
<svg version="1.1" id="Calque_1" xmlns="http://www.w3.org/2000/svg" xmlns:xlink="http://www.w3.org/1999/xlink" x="0px" y="0px"
	 viewBox="0 0 40 40" style="enable-background:new 0 0 40 40;" xml:space="preserve">
<style type="text/css">
	.st0{clip-path:url(#SVGID_2_);}
	.st1{clip-path:url(#SVGID_4_);fill:#FFFFFF;}
</style>
<g>
	<g>
		<defs>
			<rect id="SVGID_1_" width="40" height="40"/>
		</defs>
		<clipPath id="SVGID_2_">
			<use xlink:href="#SVGID_1_"  style="overflow:visible;"/>
		</clipPath>
		<g class="st0">
			<defs>
				<rect id="SVGID_3_" width="40" height="40"/>
			</defs>
			<clipPath id="SVGID_4_">
				<use xlink:href="#SVGID_3_"  style="overflow:visible;"/>
			</clipPath>
			<path class="st1" d="M27.2,6c-2.2-1.2-4.7-1.8-7.3-1.8c-7.6,0-14,5.5-15.4,12.7h22.7V6z"/>
			<path class="st1" d="M28.9,7.1v12.1H4.2c0,0.2,0,0.4,0,0.7c0,1.5,0.2,3,0.6,4.3h5v1.9H5.5c2.4,5.6,7.9,9.4,14.4,9.4
				c8.7,0,15.7-7,15.7-15.7C35.6,14.6,32.9,9.9,28.9,7.1 M13.3,19.8h3.4v1.6h-3.4V19.8z M19.6,28.3h-9.2V22h9.2V28.3z M28.9,26.1
				h-8.6v-1.9h8.6V26.1z"/>
			<path class="st1" d="M19.9,39.8C8.9,39.8,0,30.9,0,19.9S8.9,0,19.9,0s19.9,8.9,19.9,19.9S30.8,39.8,19.9,39.8 M19.9,1.2
				C9.6,1.2,1.2,9.6,1.2,19.9c0,10.3,8.4,18.7,18.7,18.7c10.3,0,18.7-8.4,18.7-18.7C38.6,9.6,30.2,1.2,19.9,1.2"/>
		</g>
	</g>
</g>
</svg>
