<?xml version="1.0" encoding="utf-8"?>
<!-- Generator: Adobe Illustrator 19.1.0, SVG Export Plug-In . SVG Version: 6.00 Build 0)  -->
<!DOCTYPE svg PUBLIC "-//W3C//DTD SVG 1.1//EN" "http://www.w3.org/Graphics/SVG/1.1/DTD/svg11.dtd">
<svg version="1.1" id="Calque_1" xmlns="http://www.w3.org/2000/svg" xmlns:xlink="http://www.w3.org/1999/xlink" x="0px" y="0px"
	 viewBox="0 0 40 40" style="enable-background:new 0 0 40 40;" xml:space="preserve">
<style type="text/css">
	.st0{clip-path:url(#SVGID_2_);}
	.st1{clip-path:url(#SVGID_4_);fill:#FFFFFF;}
</style>
<g>
	<g>
		<defs>
			<rect id="SVGID_1_" x="0" width="40" height="40"/>
		</defs>
		<clipPath id="SVGID_2_">
			<use xlink:href="#SVGID_1_"  style="overflow:visible;"/>
		</clipPath>
		<g class="st0">
			<defs>
				<rect id="SVGID_3_" x="0" width="40" height="40"/>
			</defs>
			<clipPath id="SVGID_4_">
				<use xlink:href="#SVGID_3_"  style="overflow:visible;"/>
			</clipPath>
			<path class="st1" d="M14,18.3c0.4,0.1,0.9,0.1,1.3,0.1v-4.3h-3.9C12,16,12.9,17.5,14,18.3"/>
			<path class="st1" d="M15.3,8.6h-4.7c0,1.7,0.2,3.3,0.6,4.7h4.1V8.6z"/>
			<path class="st1" d="M15.3,4.9c-1.7,0.5-3.3,1.4-4.7,2.4c0,0.2,0,0.4,0,0.5h4.7V4.9z"/>
			<path class="st1" d="M21.5,7.9h4.4c0-0.9-0.2-1.8-0.5-2.7c-1.3-0.5-2.8-0.8-4.3-0.9C21.3,5.4,21.4,6.6,21.5,7.9"/>
			<path class="st1" d="M12.5,18c-0.8-1-1.5-2.3-1.9-3.9H7.3C8.5,15.9,10.4,17.3,12.5,18"/>
			<path class="st1" d="M20.7,7.9c0-1.3-0.2-2.5-0.4-3.7c-0.1,0-0.2,0-0.3,0c-1.4,0-2.7,0.2-4,0.5v3.1H20.7z"/>
			<path class="st1" d="M10.4,13.3c-0.4-1.4-0.6-3-0.6-4.7H9.1C8,9.7,7,10.9,6.2,12.2c0.2,0.4,0.3,0.8,0.6,1.1H10.4z"/>
			<path class="st1" d="M27.1,5.9c0.1,0.8,0.2,1.5,0.2,2.3c0,6.4-5.2,11.7-11.7,11.7c-4.4,0-8.2-2.4-10.2-6c-0.8,1.9-1.2,3.9-1.2,6
				c0,1.6,0.2,3.1,0.7,4.6h6.1v1.7H5.5c2.4,5.6,8,9.5,14.4,9.5c8.7,0,15.7-7,15.7-15.7C35.7,13.8,32.2,8.5,27.1,5.9 M14.1,20.6h3V22
				h-3V20.6z M19.7,28.2h-8.1v-5.6h8.1V28.2z M27.9,26.2h-7.6v-1.7h7.6V26.2z"/>
			<path class="st1" d="M24,14.1h-3.3c-0.5,1.6-1.1,2.9-1.9,3.9C20.9,17.3,22.7,15.9,24,14.1"/>
			<path class="st1" d="M25.8,8.6h-4.4c0,1.7-0.2,3.3-0.6,4.7h3.6C25.3,11.9,25.7,10.3,25.8,8.6"/>
			<path class="st1" d="M16,13.3h4.1c0.4-1.4,0.6-3,0.6-4.7H16V13.3z"/>
			<path class="st1" d="M19.9,14.1H16v4.3c0.4,0,0.9-0.1,1.3-0.1C18.3,17.5,19.3,16,19.9,14.1"/>
			<path class="st1" d="M20,39.9C9,39.9,0,30.9,0,19.9C0,8.9,9,0,20,0c11,0,19.9,8.9,19.9,19.9C39.9,30.9,31,39.9,20,39.9 M20,1.2
				C9.6,1.2,1.2,9.6,1.2,19.9S9.6,38.7,20,38.7c10.3,0,18.7-8.4,18.7-18.7S30.3,1.2,20,1.2"/>
		</g>
	</g>
</g>
</svg>
