<?xml version="1.0" encoding="utf-8"?>
<!-- Generator: Adobe Illustrator 19.1.0, SVG Export Plug-In . SVG Version: 6.00 Build 0)  -->
<!DOCTYPE svg PUBLIC "-//W3C//DTD SVG 1.1//EN" "http://www.w3.org/Graphics/SVG/1.1/DTD/svg11.dtd">
<svg version="1.1" id="Calque_1" xmlns="http://www.w3.org/2000/svg" xmlns:xlink="http://www.w3.org/1999/xlink" x="0px" y="0px"
	 viewBox="0 0 40 40" style="enable-background:new 0 0 40 40;" xml:space="preserve">
<style type="text/css">
	.st0{clip-path:url(#SVGID_2_);}
	.st1{clip-path:url(#SVGID_4_);fill:#FFFFFF;}
</style>
<g>
	<g>
		<defs>
			<rect id="SVGID_1_" x="-0.1" width="40" height="40"/>
		</defs>
		<clipPath id="SVGID_2_">
			<use xlink:href="#SVGID_1_"  style="overflow:visible;"/>
		</clipPath>
		<g class="st0">
			<defs>
				<rect id="SVGID_3_" x="-0.1" width="40" height="40"/>
			</defs>
			<clipPath id="SVGID_4_">
				<use xlink:href="#SVGID_3_"  style="overflow:visible;"/>
			</clipPath>
			<path class="st1" d="M20,39.8C9.1,39.8,0.2,30.9,0.2,20S9.1,0.2,20,0.2C31,0.2,39.9,9.1,39.9,20S31,39.8,20,39.8 M20,1.3
				C9.7,1.3,1.4,9.7,1.4,20S9.7,38.6,20,38.6c10.3,0,18.6-8.4,18.6-18.6S30.3,1.3,20,1.3"/>
			<path class="st1" d="M20,4.3c-2.3,0-4.4,0.5-6.4,1.4L22.9,18l-3,2.2L10.5,7.6C6.8,10.5,4.4,14.9,4.4,20c0,1.1,0.1,2.2,0.4,3.3
				c0.3-0.2,0.6-0.5,1-0.7c2.1-1.6,4.5-3.4,6.7-1c2.2,2.3,7.9,2.4,9.9,2.3l0.3,1.6c-0.3,0-7.7,0.5-10.8-2.7
				c-1.6-1.7-3.5-0.2-5.5,1.2l-1.6-0.4c1.6,6.9,7.8,12,15.2,12c8.6,0,15.7-7,15.7-15.7C35.7,11.3,28.7,4.3,20,4.3 M25.2,24.2
				l-4.3-2.9l3-2.2l1.6,4.9L25.2,24.2z"/>
		</g>
	</g>
</g>
</svg>
