<?xml version="1.0" encoding="utf-8"?>
<!-- Generator: Adobe Illustrator 19.1.0, SVG Export Plug-In . SVG Version: 6.00 Build 0)  -->
<!DOCTYPE svg PUBLIC "-//W3C//DTD SVG 1.1//EN" "http://www.w3.org/Graphics/SVG/1.1/DTD/svg11.dtd">
<svg version="1.1" id="Calque_1" xmlns="http://www.w3.org/2000/svg" xmlns:xlink="http://www.w3.org/1999/xlink" x="0px" y="0px"
	 viewBox="0 0 40 40" style="enable-background:new 0 0 40 40;" xml:space="preserve">
<style type="text/css">
	.st0{clip-path:url(#SVGID_2_);}
	.st1{clip-path:url(#SVGID_4_);fill:#FFFFFF;}
</style>
<g>
	<g>
		<defs>
			<rect id="SVGID_1_" width="40" height="40"/>
		</defs>
		<clipPath id="SVGID_2_">
			<use xlink:href="#SVGID_1_"  style="overflow:visible;"/>
		</clipPath>
		<g class="st0">
			<defs>
				<rect id="SVGID_3_" width="40" height="40"/>
			</defs>
			<clipPath id="SVGID_4_">
				<use xlink:href="#SVGID_3_"  style="overflow:visible;"/>
			</clipPath>
			<path class="st1" d="M11.4,9.5H8.5c-0.7,0.8-1.3,1.6-1.8,2.5v2.1h4.8V9.5z"/>
			<rect x="12.2" y="15.1" class="st1" width="4.3" height="4.5"/>
			<path class="st1" d="M11.4,7c-0.7,0.4-1.3,1-1.9,1.5h1.9V7z"/>
			<rect x="6.6" y="15.1" class="st1" width="4.8" height="4.5"/>
			<rect x="12.2" y="20.7" class="st1" width="4.3" height="4.8"/>
			<rect x="6.6" y="20.7" class="st1" width="4.8" height="4.8"/>
			<path class="st1" d="M5.8,15.1H5.2c-0.5,1.4-0.7,3-0.8,4.5h1.4V15.1z"/>
			<path class="st1" d="M5.8,20.7H4.4c0.1,1.7,0.4,3.3,1,4.8h0.4V20.7z"/>
			<path class="st1" d="M5.6,14.1h0.3v-0.6C5.7,13.7,5.6,13.9,5.6,14.1"/>
			<rect x="17.3" y="9.5" class="st1" width="7.1" height="4.5"/>
			<rect x="17.3" y="15.1" class="st1" width="7.1" height="4.5"/>
			<rect x="12.2" y="9.5" class="st1" width="4.3" height="4.5"/>
			<path class="st1" d="M24.4,5C23,4.6,21.5,4.4,20,4.4c-0.9,0-1.8,0.1-2.7,0.3v3.8h7.1V5z"/>
			<path class="st1" d="M25.9,5.6v22.3H6.6c2.7,4.6,7.7,7.7,13.4,7.7c8.6,0,15.6-7,15.6-15.6C35.6,13.5,31.6,7.9,25.9,5.6"/>
			<path class="st1" d="M24.4,20.7h-7.1v4.8h7.1V20.7z M22.3,24h-2.4v-0.5h2.4V24z M22.3,22.6h-2.4v-0.5h2.4V22.6z"/>
			<path class="st1" d="M16.5,4.8c-1.5,0.4-2.9,0.9-4.3,1.7v2h4.3V4.8z"/>
			<path class="st1" d="M20,39.8C9.1,39.8,0.2,30.9,0.2,20C0.2,9.1,9.1,0.2,20,0.2c10.9,0,19.8,8.9,19.8,19.8
				C39.8,30.9,30.9,39.8,20,39.8 M20,1.4C9.8,1.4,1.4,9.8,1.4,20c0,10.2,8.3,18.6,18.6,18.6c10.2,0,18.6-8.3,18.6-18.6
				C38.6,9.8,30.2,1.4,20,1.4"/>
		</g>
	</g>
</g>
</svg>
