<svg xmlns="http://www.w3.org/2000/svg" width="56.106" height="56.105" viewBox="0 0 56.106 56.105"><g fill="none" stroke="#D6D6D6" stroke-width=".605" stroke-miterlimit="10"><path d="M.302.302h5.55v5.55H.3z"/><path d="M5.85.302h5.554v5.55H5.85zM11.404.302h5.55v5.55h-5.55zM16.954.302h5.55v5.55h-5.55z"/><path d="M22.503.302h5.55v5.55h-5.55zM28.053.302h5.55v5.55h-5.55zM33.604.302h5.55v5.55h-5.55z"/><path d="M39.153.302h5.55v5.55h-5.55zM44.703.302h5.553v5.55h-5.553z"/><path d="M50.255.302h5.548v5.55h-5.548z"/><g><path d="M.302 5.852h5.55v5.55H.3z"/><path d="M5.85 5.852h5.554v5.55H5.85zM11.404 5.852h5.55v5.55h-5.55zM16.954 5.852h5.55v5.55h-5.55z"/><path d="M22.503 5.852h5.55v5.55h-5.55zM28.053 5.852h5.55v5.55h-5.55zM33.604 5.852h5.55v5.55h-5.55z"/><path d="M39.153 5.852h5.55v5.55h-5.55zM44.703 5.852h5.553v5.55h-5.553z"/><path d="M50.255 5.852h5.548v5.55h-5.548z"/></g><g><path d="M.302 11.4h5.55v5.55H.3z"/><path d="M5.85 11.4h5.554v5.55H5.85zM11.404 11.4h5.55v5.55h-5.55zM16.954 11.4h5.55v5.55h-5.55z"/><path d="M22.503 11.4h5.55v5.55h-5.55zM28.053 11.4h5.55v5.55h-5.55zM33.604 11.4h5.55v5.55h-5.55z"/><path d="M39.153 11.4h5.55v5.55h-5.55zM44.703 11.4h5.553v5.55h-5.553z"/><path d="M50.255 11.4h5.548v5.55h-5.548z"/></g><g><path d="M.302 16.95h5.55v5.553H.3z"/><path d="M5.85 16.95h5.554v5.553H5.85zM11.404 16.95h5.55v5.553h-5.55zM16.954 16.95h5.55v5.553h-5.55z"/><path d="M22.503 16.95h5.55v5.553h-5.55zM28.053 16.95h5.55v5.553h-5.55zM33.604 16.95h5.55v5.553h-5.55z"/><path d="M39.153 16.95h5.55v5.553h-5.55zM44.703 16.95h5.553v5.553h-5.553z"/><path d="M50.255 16.95h5.548v5.553h-5.548z"/></g><g><path d="M.302 22.502h5.55v5.55H.3z"/><path d="M5.85 22.502h5.554v5.55H5.85zM11.404 22.502h5.55v5.55h-5.55zM16.954 22.502h5.55v5.55h-5.55z"/><path d="M22.503 22.502h5.55v5.55h-5.55zM28.053 22.502h5.55v5.55h-5.55zM33.604 22.502h5.55v5.55h-5.55z"/><path d="M39.153 22.502h5.55v5.55h-5.55zM44.703 22.502h5.553v5.55h-5.553z"/><path d="M50.255 22.502h5.548v5.55h-5.548z"/></g><g><path d="M.302 28.052h5.55v5.55H.3z"/><path d="M5.85 28.052h5.554v5.55H5.85zM11.404 28.052h5.55v5.55h-5.55zM16.954 28.052h5.55v5.55h-5.55z"/><path d="M22.503 28.052h5.55v5.55h-5.55zM28.053 28.052h5.55v5.55h-5.55zM33.604 28.052h5.55v5.55h-5.55z"/><path d="M39.153 28.052h5.55v5.55h-5.55zM44.703 28.052h5.553v5.55h-5.553z"/><path d="M50.255 28.052h5.548v5.55h-5.548z"/></g><g><path d="M.302 33.602h5.55v5.55H.3z"/><path d="M5.85 33.602h5.554v5.55H5.85zM11.404 33.602h5.55v5.55h-5.55zM16.954 33.602h5.55v5.55h-5.55z"/><path d="M22.503 33.602h5.55v5.55h-5.55zM28.053 33.602h5.55v5.55h-5.55zM33.604 33.602h5.55v5.55h-5.55z"/><path d="M39.153 33.602h5.55v5.55h-5.55zM44.703 33.602h5.553v5.55h-5.553z"/><path d="M50.255 33.602h5.548v5.55h-5.548z"/></g><g><path d="M.302 39.153h5.55v5.55H.3z"/><path d="M5.85 39.153h5.554v5.55H5.85zM11.404 39.153h5.55v5.55h-5.55zM16.954 39.153h5.55v5.55h-5.55z"/><path d="M22.503 39.153h5.55v5.55h-5.55zM28.053 39.153h5.55v5.55h-5.55zM33.604 39.153h5.55v5.55h-5.55z"/><path d="M39.153 39.153h5.55v5.55h-5.55zM44.703 39.153h5.553v5.55h-5.553z"/><path d="M50.255 39.153h5.548v5.55h-5.548z"/></g><g><path d="M.302 44.703h5.55v5.55H.3z"/><path d="M5.85 44.703h5.554v5.55H5.85zM11.404 44.703h5.55v5.55h-5.55zM16.954 44.703h5.55v5.55h-5.55z"/><path d="M22.503 44.703h5.55v5.55h-5.55zM28.053 44.703h5.55v5.55h-5.55zM33.604 44.703h5.55v5.55h-5.55z"/><path d="M39.153 44.703h5.55v5.55h-5.55zM44.703 44.703h5.553v5.55h-5.553z"/><path d="M50.255 44.703h5.548v5.55h-5.548z"/></g><g><path d="M.302 50.252h5.55v5.55H.3z"/><path d="M5.85 50.252h5.554v5.55H5.85zM11.404 50.252h5.55v5.55h-5.55zM16.954 50.252h5.55v5.55h-5.55z"/><path d="M22.503 50.252h5.55v5.55h-5.55zM28.053 50.252h5.55v5.55h-5.55zM33.604 50.252h5.55v5.55h-5.55z"/><path d="M39.153 50.252h5.55v5.55h-5.55zM44.703 50.252h5.553v5.55h-5.553z"/><path d="M50.255 50.252h5.548v5.55h-5.548z"/></g></g></svg>