<svg xmlns="http://www.w3.org/2000/svg" xmlns:xlink="http://www.w3.org/1999/xlink" width="555" height="451.082" viewBox="0 0 555 451.082"><defs><path id="a" d="M14.03 11.34h526.902v426.002H14.03z"/></defs><clipPath id="b"><use xlink:href="#a" overflow="visible"/></clipPath><path clip-path="url(#b)" fill="#79AD41" d="M200.37 208.61c0 .82.627 1.26 1.588 1.513.715-.24 1.266-.745 1.266-1.485 0-.658-.396-1.338-1.41-1.338-.935 0-1.445.605-1.445 1.31m3.1 4.095c0-.995-.706-1.475-1.835-1.79-.972.278-1.498.906-1.498 1.69-.04.83.604 1.56 1.667 1.56 1.012 0 1.666-.616 1.666-1.46m-4.486.05c0-1.035.628-1.763 1.653-2.19l-.014-.04c-.922-.428-1.318-1.134-1.318-1.84 0-1.297 1.113-2.178 2.575-2.178 1.612 0 2.422.995 2.422 2.013 0 .697-.348 1.44-1.375 1.917v.042c1.038.402 1.68 1.117 1.68 2.11 0 1.427-1.24 2.383-2.832 2.383-1.74 0-2.79-1.023-2.79-2.22"/><path fill="#79AD41" d="M207.74 207.68h-.027l-1.447.767-.215-.844 1.818-.957h.96v8.187h-1.087"/><defs><path id="c" d="M14.03 11.34h526.902v426.002H14.03z"/></defs><clipPath id="d"><use xlink:href="#c" overflow="visible"/></clipPath><path clip-path="url(#d)" fill="#79AD41" d="M177.873 356.934V354.2c0-.43.013-.856.038-1.287h-.037c-.255.48-.462.834-.69 1.21l-2.04 2.783v.028h2.73zm0 3.097v-2.228h-3.87v-.73l3.717-5.23h1.215v5.092h1.166v.87h-1.165v2.228h-1.062zM181.877 353.807c0 .818.624 1.262 1.587 1.513.717-.237 1.268-.745 1.268-1.484 0-.658-.396-1.34-1.41-1.34-.934 0-1.445.606-1.445 1.31m3.102 4.097c0-.998-.707-1.476-1.836-1.793-.975.278-1.498.91-1.498 1.692-.042.83.6 1.56 1.667 1.56 1.01 0 1.666-.616 1.666-1.46m-4.49.05c0-1.033.63-1.764 1.656-2.19l-.016-.04c-.922-.428-1.318-1.13-1.318-1.84 0-1.297 1.116-2.18 2.575-2.18 1.614 0 2.423.996 2.423 2.017 0 .692-.35 1.436-1.373 1.914v.04c1.038.403 1.678 1.118 1.678 2.115 0 1.422-1.24 2.378-2.83 2.378-1.742 0-2.794-1.02-2.794-2.217"/><path clip-path="url(#d)" fill="#4A1B0A" d="M322.656 130.143h-3.18l-.317 2.106c.188-.028.37-.056.676-.056.642 0 1.28.14 1.794.444.654.362 1.193 1.07 1.193 2.104 0 1.6-1.296 2.796-3.102 2.796-.91 0-1.68-.252-2.075-.505l.282-.842c.346.2 1.024.457 1.78.457 1.066 0 1.972-.68 1.972-1.78-.01-1.058-.73-1.813-2.396-1.813-.474 0-.843.048-1.15.088l.536-3.93h3.985v.93z"/><path fill="#4A1B0A" d="M326.338 130.243h-.026l-1.45.77-.216-.848 1.82-.954h.96v8.188h-1.088"/><defs><path id="e" d="M14.03 11.34h526.902v426.002H14.03z"/></defs><clipPath id="f"><use xlink:href="#e" overflow="visible"/></clipPath><path clip-path="url(#f)" fill="#C22E36" d="M163.675 328.24c0 1.022.626 1.738 1.6 1.738.756 0 1.344-.366 1.64-.857.063-.1.104-.225.104-.402 0-1.397-.527-2.466-1.706-2.466-.958 0-1.64.83-1.64 1.987m-.408 4.712c.243.028.525 0 .913-.038.65-.087 1.265-.354 1.738-.793.55-.49.947-1.208 1.102-2.18h-.04c-.46.558-1.126.883-1.96.883-1.5 0-2.457-1.107-2.457-2.51 0-1.547 1.138-2.908 2.843-2.908 1.706 0 2.757 1.36 2.757 3.456 0 1.797-.62 3.06-1.44 3.84-.64.62-1.522.996-2.42 1.1-.406.06-.766.07-1.037.06v-.908z"/><path fill="#C22E36" d="M174.223 325.546v.73l-3.624 7.457h-1.167l3.61-7.242v-.026h-4.072v-.918"/><defs><path id="g" d="M14.03 11.34h526.902v426.002H14.03z"/></defs><clipPath id="h"><use xlink:href="#g" overflow="visible"/></clipPath><path clip-path="url(#h)" fill="#9E629F" d="M389.612 236.68v-2.73c0-.43.014-.857.04-1.285h-.04c-.255.476-.46.83-.688 1.207l-2.04 2.787v.02h2.728zm0 3.1v-2.228h-3.866v-.73l3.716-5.228h1.216v5.086h1.165v.872h-1.165v2.23h-1.066z"/><path clip-path="url(#h)" fill="#CA7220" d="M427.537 285.33c.32.2 1.065.515 1.847.515 1.447 0 1.896-.907 1.882-1.586-.013-1.148-1.06-1.638-2.153-1.638h-.628v-.834h.628c.82 0 1.857-.413 1.857-1.384 0-.656-.42-1.236-1.456-1.236-.67 0-1.31.29-1.667.544l-.296-.806c.438-.316 1.285-.633 2.177-.633 1.645 0 2.387.96 2.387 1.953 0 .845-.513 1.562-1.542 1.93v.02c1.03.204 1.86.962 1.86 2.107 0 1.31-1.038 2.454-3.036 2.454-.934 0-1.756-.287-2.165-.55l.307-.858z"/><path clip-path="url(#h)" fill="#8DC7F0" d="M419.482 124.21v-.68l.884-.844c2.125-1.992 3.09-3.05 3.1-4.283 0-.833-.41-1.6-1.652-1.6-.756 0-1.384.377-1.77.692l-.356-.78c.578-.48 1.397-.832 2.358-.832 1.792 0 2.548 1.21 2.548 2.38 0 1.513-1.114 2.735-2.872 4.4l-.664.603v.025h3.742v.92h-5.318z"/><path clip-path="url(#h)" fill="#DFD7B0" d="M274.338 425.083l-6.024-4.544.002-.003 6.022 4.546zm6.022 4.545l-12.043-9.09c.526-.704 36.024-48.7 48.887-116.58 2.76-14.557 4.658-28.868 6.666-44.023 5.74-43.31 12.25-92.396 41.695-168.96l14.076 5.428c-28.806 74.896-35.19 123.04-40.82 165.522-2.036 15.368-3.96 29.884-6.8 44.853-13.578 71.65-50.112 120.794-51.66 122.85"/><path fill="#DFD7B0" d="M486.387 381.656l-150.263-55.65-195.368-184.53 10.35-10.987 193.132 182.42 147.384 54.585"/><path fill="#DFD7B0" d="M87.006 371.042L73.886 159.54l15.053-.932 12.015 193.705 221.35-51.27 3.396 14.714"/><defs><path id="i" d="M14.03 11.34h526.902v426.002H14.03z"/></defs><clipPath id="j"><use xlink:href="#i" overflow="visible"/></clipPath><path clip-path="url(#j)" fill="#DFD7B0" d="M471.386 117.396c-102.537 0-160.952-49.108-163.625-51.403l9.824-11.46c.67.573 68.836 57.53 184.565 46.248l1.456 15.034c-11.17 1.085-21.924 1.582-32.22 1.582"/><path clip-path="url(#j)" fill="#DFD7B0" d="M499.438 92.595C383.833 91.285 354.028 56.82 341.296 42.1c-1.434-1.658-2.67-3.092-3.62-3.982l10.322-11.01c1.517 1.427 2.992 3.13 4.7 5.11 11.396 13.176 38.09 44.04 146.912 45.276l-.172 15.1z"/><path clip-path="url(#j)" fill="#DFD7B0" d="M409.314 99.002l-14.46-4.283c.138-.477 3.47-11.735 6.485-19.498l14.055 5.47c-2.787 7.184-6.05 18.2-6.08 18.31M361.654 304.476c0 21.116-17.094 38.242-38.176 38.242-21.1 0-38.193-17.126-38.193-38.242 0-21.114 17.093-38.24 38.193-38.24 21.083 0 38.176 17.125 38.176 38.24M118.457 361.678c0 13.123-10.624 23.77-23.73 23.77-13.11 0-23.736-10.646-23.736-23.77s10.626-23.77 23.737-23.77c13.106 0 23.73 10.647 23.73 23.77"/><path clip-path="url(#j)" fill="#8DC7F0" d="M484.28 112.98c-119.644 0-171.215-49.76-173.407-51.933l3.536-3.582c.54.535 55.29 53.18 179.572 50.37l.116 5.036c-3.32.072-6.602.11-9.817.11"/><path clip-path="url(#j)" fill="#DFD7B0" d="M69.255 369.32c-12.65 0-24.033-1.898-32.924-4.066l3.575-14.673c14.57 3.56 36.636 6.314 59.022-.765l4.542 14.398c-11.805 3.74-23.467 5.107-34.215 5.107"/><path clip-path="url(#j)" fill="#222221" d="M359.03 35.13c0 8.955-7.25 16.218-16.193 16.218-8.944 0-16.194-7.263-16.194-16.217s7.25-16.216 16.194-16.216c8.943 0 16.192 7.263 16.192 16.217"/><path clip-path="url(#j)" fill="#DFD7B0" d="M85.656 406.285l-14.444-4.352c8.686-28.896 25.884-48.07 26.61-48.87l11.164 10.155-5.582-5.08 5.588 5.07c-.156.175-15.675 17.585-23.336 43.077"/><path clip-path="url(#j)" fill="#79AD41" d="M81.358 407.482l-4.923-1.007c.238-1.165 5.968-28.576 19.483-39.363 3.842-3.574 24.52-10.86 29.862-12.133 6.08-1.45 164.09-38.436 172.627-40.433 2.548-1.48 23.132-14.22 27.98-42.8 1.384-8.167 2.692-16.164 3.978-24.033 7.17-43.865 13.95-85.296 29.96-127.67l4.7 1.783c-15.834 41.9-22.26 81.2-29.7 126.7-1.287 7.88-2.597 15.89-3.98 24.06-5.576 32.87-29.818 46.012-30.848 46.556l-.6.224c-1.667.39-166.746 39.03-172.954 40.507-6.82 1.625-25.56 8.85-27.578 10.896l-.238.217c-12.157 9.606-17.713 36.23-17.77 36.495"/><path clip-path="url(#j)" fill="#CA7220" d="M263.693 430.99l-1.188-4.89c1.18-.29 118.074-29.512 148.344-103.18 26.734-65.06-10.705-116.022-40.785-156.973-4.244-5.77-8.248-11.226-11.91-16.5-2.23-3.576-53.03-85.728-50.414-135.558l5.025.265c-2.536 48.248 49.064 131.687 49.587 132.522 3.554 5.116 7.54 10.54 11.76 16.29 29.204 39.75 69.2 94.19 41.387 161.87-31.25 76.05-146.9 104.965-151.807 106.154"/><path clip-path="url(#j)" fill="#9E629F" d="M254.303 424.234l-1.38-4.843c46.828-13.377 128.64-43.72 150.372-96.603 26.735-65.06-10.705-116.022-40.79-156.973-4.238-5.774-8.246-11.227-11.906-16.502-2.232-3.576-53.032-85.722-50.414-135.554l5.022.265c-2.538 48.247 49.065 131.684 49.59 132.523 3.55 5.11 7.537 10.54 11.756 16.283 29.203 39.752 69.197 94.195 41.39 161.874-22.54 54.848-105.934 85.902-153.64 99.53"/><path clip-path="url(#j)" fill="#4A1B0A" d="M243.747 419.624l-1.553-4.787c43.667-14.205 120.982-44.552 148.147-88.223 37.195-59.788-6.738-119.6-38.816-163.27-4.26-5.8-8.283-11.278-11.81-16.357-2.105-3.508-49.493-83.186-46.88-132.993l5.02.266c-2.533 48.282 45.597 129.185 46.078 129.995 3.397 4.884 7.402 10.334 11.64 16.105 31.077 42.303 78.03 106.23 39.035 168.916-28.007 45.03-106.54 75.932-150.86 90.348"/><path fill="#79AD41" d="M490.75 381.43l-152.63-56.38-.382-.366-193.553-186.89 3.492-3.622 193.17 186.522L492.49 376.71"/><defs><path id="k" d="M14.03 11.34h526.902v426.002H14.03z"/></defs><clipPath id="l"><use xlink:href="#k" overflow="visible"/></clipPath><path clip-path="url(#l)" fill="#5294D9" d="M207.17 174.417l.662.622c.688.648 1.47.69 2 .13.598-.636.39-1.35-.286-1.998-.305-.294-.562-.474-.69-.542l-1.685 1.787zm1.463-2.836c.383.24.886.646 1.33 1.062.688.648 1.013 1.188 1.065 1.76.04.455-.128.922-.483 1.3-.61.65-1.43.69-2.122.37l-.014.015c.254.5.156 1.06-.202 1.683-.482.838-.808 1.423-.883 1.708l-.66-.624c.045-.216.333-.742.765-1.484.492-.818.462-1.323-.104-1.895l-.603-.576-1.997 2.127-.642-.605 4.55-4.84zM213.104 175.672l-2.727 2.905c-1.04 1.095-.98 2.03-.312 2.66.74.7 1.664.66 2.684-.424l2.727-2.905.65.615-2.69 2.86c-1.41 1.506-2.795 1.365-3.877.345-1.022-.958-1.25-2.256.178-3.78l2.716-2.886.65.61z"/><path fill="#5294D9" d="M217.17 184.42l-1.94-1.827-1.66 1.766 2.157 2.037-.496.533-2.797-2.643 4.606-4.904 2.692 2.536-.503.532-2.05-1.93-1.457 1.55 1.94 1.823"/><defs><path id="m" d="M14.03 11.34h526.902v426.002H14.03z"/></defs><clipPath id="n"><use xlink:href="#m" overflow="visible"/></clipPath><path clip-path="url(#n)" fill="#5294D9" d="M219.22 190.687l4.252-9.198.993.937-2.133 4.496c-.58 1.234-1.118 2.336-1.696 3.335l.018.02c.966-.62 2.09-1.228 3.267-1.84l4.457-2.325.983.924-9.13 4.605-1.01-.955z"/><path fill="#5294D9" d="M227.748 194.39l-1.935-1.825-1.662 1.77 2.16 2.032-.497.533-2.803-2.64 4.61-4.907 2.69 2.538-.5.536-2.048-1.933-1.46 1.55 1.94 1.822"/><defs><path id="o" d="M14.03 11.34h526.902v426.002H14.03z"/></defs><clipPath id="p"><use xlink:href="#o" overflow="visible"/></clipPath><path clip-path="url(#p)" fill="#5294D9" d="M229.528 195.49l.656.62c.688.65 1.47.692 2.004.13.59-.633.385-1.35-.285-1.997-.312-.293-.563-.473-.692-.54l-1.682 1.788zm1.458-2.836c.387.24.885.642 1.33 1.06.688.645 1.015 1.19 1.065 1.76.047.454-.126.92-.48 1.3-.61.65-1.43.688-2.118.365l-.02.02c.26.49.16 1.06-.2 1.682-.477.837-.807 1.418-.878 1.708l-.665-.628c.045-.214.333-.742.764-1.484.492-.815.462-1.32-.1-1.896l-.608-.57-1.997 2.127-.643-.606 4.55-4.84z"/><path fill="#5294D9" d="M235.458 196.743l-1.927 2.056 2.41 2.266 1.926-2.05.653.613-4.61 4.903-.652-.616 2.163-2.295-2.413-2.273-2.16 2.3-.64-.607 4.608-4.906"/><defs><path id="q" d="M14.03 11.34h526.902v426.002H14.03z"/></defs><clipPath id="r"><use xlink:href="#q" overflow="visible"/></clipPath><path clip-path="url(#r)" fill="#5294D9" d="M239.173 205.656l.842-1.872c.187-.428.387-.788.578-1.14l-.01-.017c-.35.226-.71.444-1.09.65l-1.82.962 1.5 1.416zm-2.097-1.048l-1.965 1.057-.668-.63 6.305-3.306.776.73-2.91 6.508-.685-.65.913-2.046-1.764-1.664z"/><path fill="#5294D9" d="M243.878 209.592l-1.937-1.823-1.666 1.768 2.16 2.033-.497.532-2.8-2.64 4.612-4.908 2.688 2.54-.5.533-2.048-1.933-1.46 1.547 1.94 1.83"/><defs><path id="s" d="M14.03 11.34h526.902v426.002H14.03z"/></defs><clipPath id="t"><use xlink:href="#s" overflow="visible"/></clipPath><path clip-path="url(#t)" fill="#5294D9" d="M246.563 216.05c-.387-.174-1.11-.54-1.783-1.174-.758-.715-1.2-1.484-1.26-2.41-.04-.807.308-1.71 1.025-2.476 1.385-1.455 3.41-1.564 5.078.01.58.545.915 1.094 1.033 1.395l-.642.37c-.157-.366-.4-.773-.906-1.247-1.21-1.145-2.7-1.15-3.853.082-1.17 1.245-1.097 2.695.06 3.79.42.397.765.613.98.682l1.374-1.464-1.012-.956.476-.51 1.642 1.548-2.213 2.36z"/><path fill="#5294D9" d="M251.875 217.13l-1.938-1.825-1.662 1.766 2.158 2.04-.496.532-2.8-2.643 4.608-4.906 2.69 2.537-.5.536-2.05-1.934-1.46 1.55 1.94 1.825"/><defs><path id="u" d="M14.03 11.34h526.902v426.002H14.03z"/></defs><clipPath id="v"><use xlink:href="#u" overflow="visible"/></clipPath><path clip-path="url(#v)" fill="#5294D9" d="M250.56 220.23l4.613-4.907.702.665-.735 3.987c-.173.922-.37 1.71-.608 2.438l.023.004c.56-.708 1.104-1.325 1.82-2.088l1.93-2.052.61.572-4.612 4.908-.655-.617.76-3.98c.164-.873.357-1.75.61-2.515l-.027-.01c-.55.65-1.09 1.255-1.852 2.068l-1.97 2.1-.607-.574zM323.358 233.716c.088.328.12.954-.03 1.72-.346 1.77-1.707 2.888-3.725 2.494-1.93-.375-2.986-1.967-2.604-3.916.15-.784.412-1.246.56-1.44l.614.322c-.205.282-.4.7-.5 1.22-.292 1.473.445 2.632 2.066 2.948 1.512.296 2.653-.398 2.95-1.928.1-.496.094-1.02 0-1.377l.668-.044z"/><path fill="#5294D9" d="M317.69 230.986l2.587.503.588-3.04-2.58-.503.162-.824 6.165 1.206-.154.82-2.894-.566-.594 3.042 2.89.565-.15.81-6.173-1.206M322.58 223.362l-.48 2.445 2.226.433.533-2.723.665.132-.687 3.53-6.172-1.204.662-3.395.672.13-.506 2.587 1.95.383.48-2.448.657.13zm-4.707-.757l.84 1.396-.13.673-.903-1.08.193-.988zM323.42 219.038l-.475 2.443 2.228.438.53-2.723.67.13-.69 3.53-6.17-1.203.66-3.395.667.13-.5 2.584 1.95.384.474-2.443"/><defs><path id="w" d="M14.03 11.34h526.902v426.002H14.03z"/></defs><clipPath id="x"><use xlink:href="#w" overflow="visible"/></clipPath><path clip-path="url(#x)" fill="#5294D9" d="M326.527 215.154c.075-.2.144-.496.205-.81.34-1.738-.43-2.865-2.098-3.193-1.452-.29-2.545.367-2.878 2.086-.077.42-.104.742-.1.968l4.87.95zm-5.615-.255c.02-.507.085-1.107.21-1.75.226-1.164.65-1.942 1.262-2.397.616-.462 1.39-.65 2.39-.455 1.01.2 1.77.676 2.216 1.375.464.704.592 1.73.35 2.956-.112.575-.233 1.055-.358 1.454l-6.07-1.185z"/><path fill="#5294D9" d="M325.896 206.318l-.473 2.446 2.224.435.53-2.727.67.13-.687 3.536-6.173-1.208.662-3.397.664.132-.5 2.586 1.954.38.47-2.445"/><defs><path id="y" d="M14.03 11.34h526.902v426.002H14.03z"/></defs><clipPath id="z"><use xlink:href="#y" overflow="visible"/></clipPath><path clip-path="url(#z)" fill="#5294D9" d="M329.73 202.082l-9.26.563.24-1.227 4.67-.2c1.147-.053 2.295-.078 3.176-.072l.005-.027c-.85-.32-1.84-.802-2.918-1.333l-4.212-2.065.234-1.21 4.685-.222c1.096-.048 2.187-.09 3.145-.04l.005-.022c-.934-.376-1.863-.824-2.91-1.316l-4.213-2.054.233-1.186 8.312 4.267-.234 1.21-4.804.24c-1.186.056-2.08.074-2.996.022l-.004.025c.845.335 1.67.7 2.74 1.257l4.34 2.176-.235 1.212zM329.54 189.37l-1.893.272c-.43.06-.817.08-1.187.104l-.007.02c.344.165.703.338 1.054.534l1.667.965.365-1.894zm.225 2.18l1.814 1.035-.167.842-5.76-3.345.198-.98 6.59-.937-.174.865-2.067.29-.435 2.23z"/><path fill="#5294D9" d="M327.162 185.958l-.37 1.912-.677-.132.908-4.655.677.134-.377 1.92 5.494 1.073-.16.82M331.02 180.03l-.48 2.445 2.228.437.533-2.725.666.13-.69 3.533-6.17-1.204.662-3.397.673.128-.505 2.59 1.95.38.474-2.446"/><defs><path id="A" d="M14.03 11.34h526.902v426.002H14.03z"/></defs><clipPath id="B"><use xlink:href="#A" overflow="visible"/></clipPath><path clip-path="url(#B)" fill="#5294D9" d="M331 178.076l.163-.83c.166-.87-.19-1.51-.897-1.647-.792-.16-1.257.363-1.435 1.217-.08.392-.093.68-.083.82l2.254.44zm-2.966.26c-.004-.427.062-1.02.173-1.58.17-.868.43-1.4.858-1.724.335-.26.793-.36 1.266-.264.82.16 1.258.788 1.35 1.494l.024.004c.263-.455.754-.655 1.423-.68.9-.04 1.528-.068 1.788-.155l-.162.84c-.193.074-.75.105-1.553.13-.893.022-1.277.297-1.448 1.028l-.147.77 2.674.52-.154.808-6.092-1.19z"/><path fill="#5294D9" d="M328.875 173.564l.16-.81 5.5 1.076.526-2.686.667.13-.682 3.497"/><defs><path id="C" d="M14.03 11.34h526.902v426.002H14.03z"/></defs><clipPath id="D"><use xlink:href="#C" overflow="visible"/></clipPath><path clip-path="url(#D)" fill="#5294D9" d="M332.83 169.905c1.317.257 2.638-.24 2.888-1.514.25-1.288-.767-2.243-2.167-2.517-1.227-.24-2.638.162-2.9 1.516-.26 1.342.825 2.25 2.18 2.515m.85-4.9c2.12.417 2.99 1.954 2.68 3.557-.324 1.66-1.812 2.582-3.678 2.215-1.963-.382-3-1.87-2.676-3.55.335-1.716 1.84-2.577 3.675-2.222M334.028 163.742c1.318.257 2.642-.24 2.887-1.514.254-1.29-.765-2.243-2.167-2.516-1.225-.24-2.636.16-2.898 1.512-.262 1.34.822 2.254 2.178 2.518m.853-4.897c2.12.415 2.99 1.95 2.678 3.557-.323 1.66-1.808 2.577-3.675 2.21-1.96-.382-3.003-1.87-2.673-3.55.333-1.714 1.84-2.575 3.67-2.217M207.91 353.195l-1.078-1.713c-.25-.387-.435-.756-.622-1.105l-.02.004c-.006.406-.022.83-.058 1.253l-.205 2.028 1.982-.465zm-2.007 1.16l-.21 2.205-.88.203.73-7.01 1.026-.242 3.76 5.966-.908.21-1.18-1.88-2.34.548zM211.953 355.094l-3.66-5.985.92-.217 1.766 2.96c.49.808.916 1.538 1.27 2.258l.02-.004c.012-.793.097-1.674.194-2.593l.364-3.466.91-.212-.844 7.037-.94.222zM215.51 353.51c-.124-.51.143-.948.632-1.063.487-.114.91.166 1.027.674.115.495-.122.94-.636 1.064-.492.115-.914-.18-1.025-.674M221.433 352.177c.228-.014.542-.075.875-.15 1.82-.428 2.577-1.66 2.167-3.415-.35-1.527-1.452-2.297-3.253-1.877-.44.102-.767.22-.98.322l1.19 5.12zm-2.186-5.536c.5-.198 1.104-.402 1.778-.56 1.218-.287 2.158-.212 2.857.185.713.392 1.23 1.063 1.476 2.113.246 1.058.116 2.005-.362 2.743-.478.752-1.414 1.314-2.698 1.615-.608.14-1.125.23-1.562.286l-1.49-6.38zM226.32 344.894l.89 3.84c.34 1.456 1.14 1.92 2.022 1.71.98-.23 1.457-1.01 1.12-2.444l-.892-3.838.856-.203.885 3.785c.463 1.99-.41 3.058-1.836 3.393-1.35.314-2.545-.21-3.015-2.22l-.893-3.825.862-.2zM236.04 344.52c.282.003.624-.044 1.03-.138 1.465-.344 2.198-1.253 1.9-2.532-.287-1.225-1.305-1.61-2.648-1.295-.53.125-.924.262-1.122.364l.84 3.6zm-2.258-4.184c.564-.23 1.31-.494 2.29-.722 1.207-.282 2.15-.214 2.823.15.62.32 1.083.922 1.28 1.746.195.838.1 1.555-.27 2.148-.487.824-1.453 1.412-2.646 1.69-.36.084-.7.15-.996.143l.868 3.715-1.216.284-2.134-9.154zM245.238 344.468l-1.083-1.716c-.246-.385-.433-.75-.622-1.1l-.02.002c-.006.408-.02.83-.058 1.253l-.205 2.025 1.988-.464zm-2.01 1.162l-.212 2.2-.88.208.73-7.013 1.025-.24 3.762 5.965-.906.21-1.182-1.88-2.336.55zM248.394 342.943l.872-.203c.913-.217 1.373-.838 1.2-1.582-.196-.836-.9-1.06-1.796-.856-.412.094-.7.203-.827.273l.55 2.368zm-1.54-2.757c.414-.19 1.015-.38 1.607-.517.905-.215 1.53-.188 2.027.083.4.212.688.608.806 1.108.203.857-.214 1.554-.858 1.948l.01.03c.547.054.96.445 1.276 1.083.424.855.728 1.444.923 1.662l-.886.208c-.148-.16-.423-.686-.8-1.448-.402-.85-.83-1.104-1.613-.956l-.806.19.66 2.81-.852.2-1.492-6.4zM257.92 344.124c-.274.23-.866.526-1.668.715-1.855.437-3.528-.397-4.02-2.52-.478-2.034.605-3.735 2.65-4.215.817-.192 1.375-.14 1.63-.078l-.045.733c-.36-.078-.847-.087-1.394.04-1.545.362-2.35 1.574-1.95 3.28.37 1.583 1.54 2.387 3.143 2.014.52-.12 1.02-.353 1.325-.597l.33.627zM100.245 227.858l1.827-.776c.41-.178.795-.303 1.164-.426v-.02c-.396-.074-.8-.15-1.2-.256l-1.93-.517.14 1.995zm-.806-2.124l-2.097-.542-.06-.89 6.66 1.798.07 1.034-6.346 2.714-.06-.916 1.995-.85-.163-2.348zM97.78 231.48l6.355-2.617.065.924-3.133 1.254c-.858.352-1.635.652-2.386.878l.004.02c.766.135 1.606.353 2.473.59l3.294.897.064.91-6.668-1.912-.066-.944zM98.758 235.167c.51-.035.893.29.923.783.04.492-.295.85-.805.888-.494.034-.89-.26-.927-.78-.034-.497.316-.855.81-.89M99.12 241.118c-.024.22-.01.533.01.87.128 1.828 1.2 2.75 2.96 2.63 1.53-.1 2.448-1.052 2.323-2.86-.032-.444-.098-.778-.163-1l-5.13.36zm5.687-1.255c.118.517.22 1.13.267 1.81.086 1.225-.136 2.12-.623 2.74-.49.627-1.22 1.02-2.27 1.094-1.065.073-1.956-.198-2.594-.778-.65-.577-1.05-1.574-1.14-2.863-.042-.612-.05-1.12-.033-1.56l6.394-.444zM105.394 246.982l-3.85.27c-1.456.1-2.03.802-1.97 1.686.07.985.752 1.568 2.188 1.47l3.852-.27.058.86-3.795.268c-1.993.137-2.887-.874-2.987-2.31-.093-1.353.592-2.43 2.61-2.57l3.832-.268.062.864zM104.47 256.438l.088 1.252c.09 1.307.854 2.087 1.913 2.01 1.202-.082 1.663-1.003 1.585-2.294-.042-.59-.125-1.01-.196-1.202l-3.39.234zm4.15-1.515c.162.608.29 1.49.35 2.332.092 1.305-.08 2.167-.567 2.796-.378.506-.996.814-1.71.864-1.226.084-2.096-.645-2.494-1.617l-.04.002c-.202.746-.83 1.226-1.78 1.522-1.27.398-2.154.688-2.5.908l-.083-1.265c.25-.176 1.03-.437 2.173-.786 1.264-.372 1.707-.914 1.673-2.027l-.08-1.152-4.024.283-.085-1.223 9.164-.637zM103.18 262.7c-1.39.1-2.582.948-2.486 2.293.09 1.36 1.37 2.04 2.848 1.936 1.292-.09 2.593-.87 2.493-2.296-.098-1.417-1.428-2.033-2.854-1.933m.463 5.13c-2.238.157-3.522-1.143-3.64-2.84-.12-1.748 1.122-3.066 3.09-3.205 2.066-.144 3.51 1.07 3.635 2.84.122 1.807-1.155 3.073-3.085 3.205"/><path fill="#5294D9" d="M100.424 269.736l-.057-.853 6.506-.44.057.854z"/><g><defs><path id="E" d="M14.03 11.34h526.902v426.002H14.03z"/></defs><clipPath id="F"><use xlink:href="#E" overflow="visible"/></clipPath><path clip-path="url(#F)" fill="#222221" d="M328.865 61.796c0 8.954-7.25 16.217-16.192 16.217-8.944 0-16.195-7.263-16.195-16.217 0-8.955 7.25-16.217 16.195-16.217 8.943 0 16.192 7.262 16.192 16.216M395.06 186.188c0 8.954-7.246 16.217-16.19 16.217-8.946 0-16.195-7.263-16.195-16.217s7.25-16.217 16.196-16.217c8.943 0 16.19 7.264 16.19 16.218"/><path clip-path="url(#F)" fill="#C22E36" d="M493.138 374.967c-16.916-6.647-76.403-29.81-131.76-48.83-45.665-15.694-67.277-11.138-67.487-11.09l-173.146 40.108c-1.74.484-45.492 12.467-85.227 4.022l1.047-4.927c38.548 8.2 82.496-3.85 82.937-3.973l173.262-40.138c.922-.206 22.98-5.006 70.247 11.23 55.452 19.055 115.024 42.252 131.964 48.907l-1.836 4.69z"/><path clip-path="url(#F)" fill="#222221" d="M411.254 337.91c0 8.955-7.25 16.22-16.19 16.22-8.946 0-16.197-7.265-16.197-16.22s7.25-16.216 16.196-16.216c8.942 0 16.19 7.263 16.19 16.217M295.607 414.306c0 8.955-7.25 16.215-16.192 16.215-8.944 0-16.196-7.26-16.196-16.214 0-8.956 7.25-16.217 16.195-16.217 8.943 0 16.192 7.26 16.192 16.216"/></g><path fill="#FFF" d="M342.835 38.31h-.073l-3.987-5.858v8.93h-2.206v-12.5h2.385l3.88 5.91 3.884-5.91h2.385v12.5h-2.246V32.42M312.67 64.975h-.073l-3.986-5.858v8.93h-2.204v-12.5h2.383l3.88 5.91 3.883-5.91h2.385v12.5h-2.242v-8.965M378.866 189.366h-.072l-3.987-5.858v8.93H372.6v-12.5h2.387l3.88 5.91 3.883-5.91h2.386v12.5h-2.244v-8.964M395.06 341.09h-.075l-3.99-5.858v8.93h-2.202v-12.5h2.385l3.88 5.91 3.883-5.91h2.388v12.5h-2.245v-8.965M279.41 417.484h-.07l-3.988-5.86v8.93h-2.206v-12.497h2.386l3.88 5.907 3.884-5.907h2.385v12.498h-2.243v-8.963"/><g><defs><path id="G" d="M14.03 11.34h526.902v426.002H14.03z"/></defs><clipPath id="H"><use xlink:href="#G" overflow="visible"/></clipPath><path clip-path="url(#H)" fill="#5294D9" d="M324.258 22.5c0 6.16-4.99 11.158-11.147 11.158h-81.236c-6.154 0-11.142-4.998-11.142-11.158 0-6.163 4.988-11.16 11.142-11.16h81.237c6.157 0 11.148 4.997 11.148 11.16"/><path clip-path="url(#H)" fill="#FFF" d="M239.213 22.06c.3.08.68.108 1.136.108 1.66 0 2.67-.792 2.67-2.233 0-1.382-.993-2.047-2.51-2.047-.605 0-1.06.045-1.297.107v4.064zm-1.374-5.042c.66-.11 1.533-.205 2.64-.205 1.357 0 2.35.312 2.98.87.59.498.935 1.257.935 2.19 0 .944-.286 1.69-.82 2.235-.728.758-1.916 1.147-3.257 1.147-.412 0-.79-.016-1.104-.094v4.193h-1.375V17.018zM246.016 23.746c0 1.56.863 2.958 2.38 2.958 1.53 0 2.392-1.375 2.392-3.033 0-1.452-.77-2.973-2.376-2.973-1.6 0-2.396 1.44-2.396 3.05m5.793-.122c0 2.514-1.56 3.848-3.47 3.848-1.966 0-3.353-1.494-3.353-3.707 0-2.322 1.47-3.84 3.467-3.84 2.04 0 3.355 1.53 3.355 3.7M253.696 23.472h.986c1.03 0 1.685-.553 1.685-1.386 0-.945-.704-1.357-1.72-1.366-.465 0-.798.043-.95.088v2.664zm-.966-3.326c.485-.1 1.186-.155 1.85-.155 1.03 0 1.695.188 2.164.597.376.328.587.824.587 1.39 0 .966-.62 1.604-1.408 1.863v.032c.57.195.917.717 1.095 1.475.24 1.02.418 1.723.576 2.006h-.997c-.125-.205-.285-.833-.494-1.747-.228-1.006-.628-1.39-1.502-1.418h-.904v3.165h-.965v-7.207z"/></g><path fill="#FFF" d="M259.875 20.85h-2.27v-.804h5.527v.804h-2.28v6.504h-.977M267.5 23.928h-2.9v2.634h3.236v.794h-4.203v-7.31h4.035v.795h-3.07v2.307h2.9"/><g><defs><path id="I" d="M14.03 11.34h526.902v426.002H14.03z"/></defs><clipPath id="J"><use xlink:href="#I" overflow="visible"/></clipPath><path clip-path="url(#J)" fill="#FFF" d="M272.613 26.605c.24.046.597.055.97.055 2.063 0 3.18-1.13 3.18-3.098.012-1.726-.985-2.82-3.025-2.82-.494 0-.872.044-1.125.1v5.763zm-.966-6.46c.587-.088 1.28-.154 2.05-.154 1.383 0 2.37.32 3.022.916.664.594 1.05 1.44 1.05 2.62 0 1.194-.376 2.17-1.073 2.842-.702.683-1.85 1.052-3.297 1.052-.692 0-1.27-.034-1.753-.086v-7.188z"/></g><path fill="#FFF" d="M282.563 23.928h-2.902v2.634h3.234v.794h-4.198v-7.31h4.032v.795h-3.067v2.307h2.903M288.438 16.893v4.376h5.15v-4.377h1.39v10.46h-1.39V22.45h-5.15v4.906h-1.377v-10.46"/><g><defs><path id="K" d="M14.03 11.34h526.902v426.002H14.03z"/></defs><clipPath id="L"><use xlink:href="#K" overflow="visible"/></clipPath><path clip-path="url(#L)" fill="#FFF" d="M300.2 24.32l-.725-2.103c-.166-.478-.28-.915-.39-1.334h-.02c-.114.43-.23.876-.38 1.323l-.734 2.112h2.25zm-2.443.737l-.774 2.297h-.997l2.536-7.308h1.165l2.546 7.308h-1.03l-.8-2.297h-2.646z"/></g><path fill="#FFF" d="M302.998 20.046h.965v6.516h3.184v.792h-4.15"/><g><defs><path id="M" d="M14.03 11.34h526.902v426.002H14.03z"/></defs><clipPath id="N"><use xlink:href="#M" overflow="visible"/></clipPath><path clip-path="url(#N)" fill="#5294D9" d="M468.054 344.413c0 6.156-2.784 11.15-6.216 11.15h-45.283c-3.434 0-6.216-4.994-6.216-11.15 0-6.16 2.78-11.153 6.215-11.153h45.283c3.432 0 6.216 4.993 6.216 11.153"/></g><path fill="#FFF" d="M424.31 338.808v4.374h5.144v-4.374h1.39v10.455h-1.39v-4.902h-5.145v4.903h-1.376v-10.455"/><g><defs><path id="O" d="M14.03 11.34h526.902v426.002H14.03z"/></defs><clipPath id="P"><use xlink:href="#O" overflow="visible"/></clipPath><path clip-path="url(#P)" fill="#FFF" d="M433 345.656c0 1.56.863 2.955 2.383 2.955 1.525 0 2.388-1.374 2.388-3.03 0-1.45-.773-2.97-2.378-2.97-1.594 0-2.393 1.44-2.393 3.046m5.79-.118c0 2.512-1.56 3.843-3.464 3.843-1.97 0-3.354-1.492-3.354-3.703 0-2.32 1.47-3.833 3.463-3.833 2.038 0 3.354 1.524 3.354 3.694M440.674 345.383h.988c1.027 0 1.68-.548 1.68-1.386 0-.943-.696-1.354-1.716-1.366-.465 0-.8.05-.952.093v2.66zm-.966-3.323c.488-.1 1.188-.152 1.854-.152 1.026 0 1.69.187 2.158.597.38.325.587.82.587 1.386 0 .967-.618 1.606-1.406 1.863v.034c.577.196.92.715 1.1 1.474.24 1.02.417 1.727.572 2.004h-1c-.12-.204-.284-.833-.494-1.746-.223-1.006-.623-1.387-1.497-1.42h-.905v3.166h-.966v-7.204z"/></g><path fill="#FFF" d="M446.853 342.763h-2.268v-.804h5.522v.803h-2.28v6.5h-.974"/><g><defs><path id="Q" d="M14.03 11.34h526.902v426.002H14.03z"/></defs><clipPath id="R"><use xlink:href="#Q" overflow="visible"/></clipPath><path clip-path="url(#R)" fill="#FFF" d="M453.433 346.23l-.73-2.1c-.164-.478-.278-.914-.388-1.333h-.02c-.115.43-.233.876-.38 1.32l-.728 2.112h2.246zm-2.448.738l-.772 2.295h-.997l2.534-7.304h1.16l2.548 7.303h-1.03l-.795-2.295h-2.648z"/><path clip-path="url(#R)" fill="#5294D9" d="M394.854 296.626c0 7.092-3.24 12.845-7.23 12.845h-52.71c-3.994 0-7.23-5.752-7.23-12.844 0-7.095 3.236-12.846 7.23-12.846h52.71c3.99 0 7.23 5.75 7.23 12.846"/><path clip-path="url(#R)" fill="#FFF" d="M339.584 301.182c.29.05.715.065 1.248.065 1.543 0 2.96-.555 2.96-2.206 0-1.55-1.353-2.187-2.98-2.187h-1.228v4.33zm0-5.445h1.353c1.575 0 2.502-.806 2.502-1.9 0-1.332-1.032-1.854-2.535-1.854-.69 0-1.083.052-1.32.103v3.65zm-1.49-4.643c.652-.138 1.675-.24 2.72-.24 1.488 0 2.454.256 3.17.827.605.44.96 1.112.96 2.004 0 1.098-.738 2.054-1.948 2.496v.03c1.092.272 2.38 1.162 2.38 2.85 0 .977-.393 1.717-.978 2.274-.806.722-2.107 1.062-3.99 1.062-1.032 0-1.82-.07-2.312-.138v-11.164zM350.457 298.998l-.796-2.278c-.178-.518-.295-.988-.42-1.446h-.02c-.125.47-.255.954-.407 1.432L348.02 299h2.437zm-2.654.8l-.838 2.494h-1.083l2.75-7.925h1.26l2.763 7.925h-1.118l-.865-2.494h-2.87zM354.532 298.083h1.07c1.115 0 1.823-.6 1.823-1.508 0-1.02-.755-1.468-1.864-1.482-.495 0-.857.054-1.028.096v2.893zm-1.043-3.61c.528-.108 1.283-.167 2-.167 1.123 0 1.84.2 2.344.65.407.352.637.89.637 1.5 0 1.05-.677 1.745-1.52 2.027v.032c.62.216.99.778 1.186 1.6.264 1.105.455 1.872.624 2.177h-1.084c-.13-.223-.308-.905-.538-1.892-.24-1.096-.67-1.507-1.62-1.54h-.984v3.432h-1.043v-7.818zM360.644 298.083h1.063c1.118 0 1.825-.6 1.825-1.508 0-1.02-.756-1.468-1.857-1.482-.508 0-.867.054-1.03.096v2.893zm-1.043-3.61c.524-.108 1.28-.167 2.002-.167 1.114 0 1.838.2 2.336.65.417.352.635.89.635 1.5 0 1.05-.666 1.745-1.52 2.027v.032c.623.216.997.778 1.187 1.6.262 1.105.46 1.872.624 2.177h-1.08c-.13-.223-.313-.905-.54-1.892-.237-1.096-.67-1.507-1.617-1.54h-.983v3.432H359.6v-7.818z"/></g><path fill="#FFF" d="M365.702 294.364h1.045v7.928h-1.045zM370.01 292.568l1.115 1.364h-.864l-1.522-1.364h1.272zm2.404 6.006h-3.146v2.86h3.506v.857h-4.55v-7.927h4.367v.863h-3.322v2.504h3.146v.844z"/><g><defs><path id="S" d="M14.03 11.34h526.902v426.002H14.03z"/></defs><clipPath id="T"><use xlink:href="#S" overflow="visible"/></clipPath><path clip-path="url(#T)" fill="#FFF" d="M374.823 298.083h1.07c1.114 0 1.822-.6 1.822-1.508 0-1.02-.753-1.468-1.864-1.482-.496 0-.86.054-1.027.096v2.893zm-1.045-3.61c.53-.108 1.285-.167 2.003-.167 1.123 0 1.838.2 2.344.65.407.352.637.89.637 1.5 0 1.05-.677 1.745-1.52 2.027v.032c.62.216.99.778 1.187 1.6.262 1.105.453 1.872.622 2.177h-1.085c-.13-.223-.308-.905-.535-1.892-.244-1.096-.672-1.507-1.623-1.54h-.983v3.432h-1.045v-7.818z"/></g><path fill="#FFF" d="M384.08 298.574h-3.146v2.86h3.505v.858h-4.55v-7.928h4.365v.864h-3.32v2.503h3.145"/><g><defs><path id="U" d="M14.03 11.34h526.902v426.002H14.03z"/></defs><clipPath id="V"><use xlink:href="#U" overflow="visible"/></clipPath><path clip-path="url(#V)" fill="#5294D9" d="M366.465 418.627c0 6.43-3.234 11.646-7.22 11.646H306.63c-3.985 0-7.216-5.216-7.216-11.646 0-6.432 3.23-11.647 7.215-11.647h52.615c3.985 0 7.22 5.215 7.22 11.647"/><path clip-path="url(#V)" fill="#FFF" d="M320.564 419.155l-1.093-3.14c-.245-.715-.41-1.363-.573-1.997h-.034c-.164.65-.348 1.314-.562 1.98l-1.086 3.156h3.35zm-3.646 1.105l-1.154 3.433h-1.487l3.78-10.917h1.73l3.792 10.917h-1.535l-1.19-3.433h-3.937z"/></g><path fill="#FFF" d="M324.362 416.066h1.006v6.8h3.328v.826h-4.334"/><g><defs><path id="W" d="M14.03 11.34h526.902v426.002H14.03z"/></defs><clipPath id="X"><use xlink:href="#W" overflow="visible"/></clipPath><path clip-path="url(#X)" fill="#FFF" d="M330.478 422.948c.2.03.486.043.847.043 1.04 0 2.003-.372 2.003-1.48 0-1.04-.92-1.47-2.017-1.47h-.832v2.908zm0-3.657h.912c1.07 0 1.688-.543 1.688-1.278 0-.892-.692-1.245-1.712-1.245-.457 0-.725.034-.888.07v2.454zm-1.007-3.12c.44-.093 1.14-.16 1.84-.16 1.008 0 1.656.172 2.142.554.405.297.646.748.646 1.35 0 .732-.496 1.378-1.315 1.672v.02c.742.186 1.61.782 1.61 1.916 0 .658-.272 1.157-.66 1.527-.545.487-1.424.712-2.694.712-.695 0-1.23-.045-1.567-.09v-7.5z"/></g><path fill="#FFF" d="M339.434 420.118h-3.03v2.748h3.378v.83h-4.386v-7.63h4.21v.83h-3.2v2.41h3.028"/><g><defs><path id="Y" d="M14.03 11.34h526.902v426.002H14.03z"/></defs><clipPath id="Z"><use xlink:href="#Y" overflow="visible"/></clipPath><path clip-path="url(#Z)" fill="#FFF" d="M341.747 419.643h1.028c1.075 0 1.756-.576 1.756-1.448 0-.983-.726-1.416-1.79-1.428-.483 0-.832.05-.993.094v2.783zm-1.01-3.472c.51-.103 1.237-.16 1.936-.16 1.075 0 1.768.194 2.252.623.395.34.615.86.615 1.448 0 1.01-.65 1.68-1.47 1.946v.034c.6.203.962.748 1.145 1.54.255 1.065.442 1.798.598 2.092h-1.04c-.126-.214-.3-.87-.518-1.82-.23-1.053-.646-1.448-1.56-1.485h-.95v3.306h-1.008v-7.522z"/></g><path fill="#FFF" d="M348.198 416.906h-2.367v-.84h5.77v.84h-2.38v6.786h-1.022"/><g><defs><path id="aa" d="M14.03 11.34h526.902v426.002H14.03z"/></defs><clipPath id="ab"><use xlink:href="#aa" overflow="visible"/></clipPath><path clip-path="url(#ab)" fill="#5294D9" d="M540.935 142.624c0 10.534-4.275 19.083-9.54 19.083H461.87c-5.263 0-9.534-8.55-9.534-19.083 0-10.543 4.27-19.092 9.534-19.092h69.526c5.263 0 9.54 8.548 9.54 19.092"/></g><path fill="#FFF" d="M471.31 128.556v4.61h5.422v-4.61h1.466v11.017h-1.466v-5.166h-5.422v5.166h-1.45v-11.017"/><g><defs><path id="ac" d="M14.03 11.34h526.902v426.002H14.03z"/></defs><clipPath id="ad"><use xlink:href="#ac" overflow="visible"/></clipPath><path clip-path="url(#ad)" fill="#FFF" d="M483.357 130.13l1.227 1.303h-.862l-.743-.788h-.032l-.733.788h-.838l1.202-1.302h.777zm-2.89 5.643c0 1.644.91 3.115 2.512 3.115 1.604 0 2.513-1.45 2.513-3.194 0-1.53-.812-3.13-2.504-3.13-1.68 0-2.524 1.515-2.524 3.21m6.1-.128c0 2.648-1.644 4.052-3.65 4.052-2.072 0-3.534-1.576-3.534-3.904 0-2.443 1.55-4.043 3.65-4.043 2.15 0 3.533 1.612 3.533 3.896"/></g><path fill="#FFF" d="M488.734 132.725h-2.39v-.848h5.82v.848h-2.4v6.848h-1.03M496.763 135.964h-3.052v2.775h3.407v.833h-4.423v-7.698h4.245v.838h-3.23v2.43h3.053M498.087 131.877h1.016v6.862h3.362v.833h-4.378"/><g><defs><path id="ae" d="M14.03 11.34h526.902v426.002H14.03z"/></defs><clipPath id="af"><use xlink:href="#ae" overflow="visible"/></clipPath><path clip-path="url(#af)" fill="#FFF" d="M507.308 138.785c.258.045.63.06 1.024.06 2.172 0 3.352-1.19 3.352-3.266.01-1.82-1.04-2.974-3.188-2.974-.522 0-.92.05-1.188.104v6.075zm-1.016-6.803c.62-.093 1.354-.164 2.16-.164 1.458 0 2.496.334 3.185.963.698.63 1.107 1.52 1.107 2.763 0 1.257-.4 2.283-1.13 2.99-.74.72-1.948 1.107-3.475 1.107-.73 0-1.338-.034-1.85-.09v-7.568z"/></g><path fill="#FFF" d="M517.785 135.964h-3.055v2.775h3.408v.833h-4.423v-7.698h4.245v.838h-3.23v2.43h3.055"/><g><defs><path id="ag" d="M14.03 11.34h526.902v426.002H14.03z"/></defs><clipPath id="ah"><use xlink:href="#ag" overflow="visible"/></clipPath><path clip-path="url(#ah)" fill="#FFF" d="M518.967 138.36c.453.276 1.118.504 1.814.504 1.044 0 1.65-.537 1.65-1.313 0-.72-.42-1.128-1.48-1.53-1.284-.44-2.08-1.092-2.08-2.178 0-1.198 1.02-2.09 2.545-2.09.806 0 1.39.185 1.736.378l-.276.808c-.258-.134-.783-.364-1.494-.364-1.072 0-1.482.63-1.482 1.152 0 .722.48 1.072 1.563 1.487 1.335.503 2.01 1.13 2.01 2.258 0 1.19-.896 2.216-2.753 2.216-.76 0-1.583-.213-2.007-.49l.257-.835zM479.31 149.253c-.085-1.537-.183-3.383-.166-4.756h-.053c-.382 1.29-.85 2.66-1.41 4.185l-1.98 5.343h-1.1l-1.81-5.248c-.534-1.55-.984-2.974-1.3-4.28h-.033c-.034 1.373-.116 3.22-.217 4.87l-.3 4.727h-1.38l.782-11.02h1.845l1.915 5.33c.465 1.355.845 2.57 1.127 3.71h.054c.282-1.11.68-2.32 1.18-3.71l1.998-5.33h1.847l.695 11.02h-1.414l-.28-4.84zM482.995 150.29c0 1.645.913 3.116 2.507 3.116 1.616 0 2.522-1.45 2.522-3.194 0-1.53-.817-3.13-2.51-3.13-1.678 0-2.52 1.518-2.52 3.21m6.105-.126c0 2.646-1.647 4.05-3.652 4.05-2.08 0-3.538-1.575-3.538-3.904 0-2.443 1.548-4.042 3.65-4.042 2.145 0 3.54 1.612 3.54 3.896M490.064 154.09v-7.694h1.11l2.517 3.895c.586.9 1.04 1.713 1.414 2.5l.025-.01c-.092-1.03-.117-1.964-.117-3.162v-3.222h.956v7.695h-1.03l-2.49-3.9c-.55-.86-1.077-1.738-1.473-2.57l-.034.01c.06.97.082 1.897.082 3.174v3.288h-.96zM497.39 154.09v-7.694h1.112l2.514 3.895c.587.9 1.043 1.713 1.415 2.5l.024-.01c-.09-1.03-.114-1.964-.114-3.162v-3.222h.954v7.695h-1.026l-2.493-3.9c-.552-.86-1.077-1.738-1.473-2.57l-.032.01c.057.97.08 1.897.08 3.174v3.288h-.96zM508.564 150.897l-.768-2.215c-.177-.503-.296-.96-.407-1.405h-.023c-.12.456-.246.924-.4 1.393l-.77 2.227h2.367zm-2.58.776l-.81 2.418h-1.052l2.67-7.694h1.226l2.682 7.695h-1.088l-.838-2.417h-2.79z"/></g><path fill="#FFF" d="M511.507 146.398h1.015v7.693h-1.015zM518.024 150.485h-3.057v2.773h3.41v.833h-4.426v-7.694h4.25v.835h-3.233v2.433h3.057"/><g><defs><path id="ai" d="M14.03 11.34h526.902v426.002H14.03z"/></defs><clipPath id="aj"><use xlink:href="#ai" overflow="visible"/></clipPath><path clip-path="url(#aj)" fill="#FFF" d="M519.206 152.88c.455.275 1.117.503 1.82.503 1.04 0 1.645-.538 1.645-1.314 0-.718-.415-1.13-1.478-1.53-1.282-.443-2.077-1.094-2.077-2.18 0-1.197 1.017-2.09 2.543-2.09.81 0 1.385.185 1.738.378l-.278.813c-.26-.138-.783-.368-1.493-.368-1.075 0-1.48.628-1.48 1.154 0 .72.474 1.072 1.563 1.484 1.327.503 2 1.132 2 2.26 0 1.187-.895 2.214-2.75 2.214-.758 0-1.587-.214-2.008-.492l.256-.832z"/><path clip-path="url(#aj)" fill="#5294D9" d="M483.332 197.906c0 11.356-4.257 20.572-9.503 20.572h-69.27c-5.248 0-9.498-9.216-9.498-20.572 0-11.363 4.25-20.577 9.5-20.577h69.267c5.245 0 9.502 9.213 9.502 20.576"/><path clip-path="url(#aj)" fill="#FFF" d="M415.366 189.762c.313.082.708.11 1.187.11 1.73 0 2.784-.823 2.784-2.33 0-1.44-1.04-2.133-2.618-2.133-.63 0-1.108.047-1.354.11v4.242zm-1.434-5.26c.692-.113 1.6-.21 2.755-.21 1.416 0 2.452.322 3.11.905.61.52.974 1.31.974 2.285 0 .984-.3 1.763-.857 2.332-.755.79-1.994 1.195-3.392 1.195-.43 0-.825-.017-1.153-.1v4.372h-1.435v-10.78zM425.66 192.12l-.764-2.193c-.17-.5-.287-.954-.406-1.39h-.02c-.116.447-.243.912-.394 1.38l-.763 2.203h2.346zm-2.554.766l-.806 2.397h-1.04l2.645-7.62h1.21l2.658 7.62H426.7l-.834-2.397h-2.76zM429.58 191.235h1.025c1.075 0 1.758-.576 1.758-1.448 0-.98-.73-1.414-1.794-1.426-.483 0-.834.05-.99.095v2.78zm-1.01-3.47c.51-.103 1.24-.16 1.936-.16 1.07 0 1.765.192 2.25.623.394.34.612.858.612 1.448 0 1.006-.645 1.673-1.466 1.944v.034c.6.203.957.747 1.145 1.537.25 1.067.437 1.802.6 2.093h-1.044c-.125-.214-.295-.87-.515-1.82-.234-1.05-.65-1.45-1.562-1.48h-.947v3.3h-1.01v-7.517zM436.34 195.283l-2.547-7.622h1.09l1.21 3.757c.337 1.03.624 1.953.833 2.848h.023c.218-.883.54-1.844.89-2.837l1.315-3.768h1.074l-2.785 7.622h-1.106z"/></g><path fill="#FFF" d="M440.732 187.66h1.005v7.62h-1.005z"/><g><defs><path id="ak" d="M14.03 11.34h526.902v426.002H14.03z"/></defs><clipPath id="al"><use xlink:href="#ak" overflow="visible"/></clipPath><path clip-path="url(#al)" fill="#FFF" d="M443.015 194.083c.447.273 1.105.5 1.8.5 1.027 0 1.63-.53 1.63-1.3 0-.716-.416-1.122-1.468-1.517-1.27-.438-2.058-1.084-2.058-2.16 0-1.185 1.007-2.07 2.52-2.07.798 0 1.376.186 1.72.377l-.276.802c-.255-.137-.773-.364-1.48-.364-1.06 0-1.465.622-1.465 1.146 0 .71.47 1.06 1.545 1.468 1.318.5 1.987 1.123 1.987 2.238 0 1.177-.888 2.194-2.728 2.194-.75 0-1.568-.216-1.984-.487l.255-.827zM452.525 194.505c.252.043.622.055 1.014.055 2.15 0 3.316-1.177 3.316-3.23.014-1.802-1.03-2.942-3.155-2.942-.518 0-.91.046-1.175.102v6.015zm-1.007-6.74c.612-.092 1.34-.16 2.142-.16 1.442 0 2.47.33 3.15.95.695.625 1.1 1.506 1.1 2.735 0 1.246-.393 2.265-1.12 2.967-.73.71-1.932 1.092-3.443 1.092-.72 0-1.32-.033-1.828-.09v-7.494z"/></g><path fill="#FFF" d="M462.898 191.71h-3.028v2.75h3.375v.823h-4.38v-7.622h4.207v.83h-3.202v2.406h3.028"/><g><defs><path id="am" d="M14.03 11.34h526.902v426.002H14.03z"/></defs><clipPath id="an"><use xlink:href="#am" overflow="visible"/></clipPath><path clip-path="url(#an)" fill="#FFF" d="M413.736 207.944c.642.39 1.582.715 2.567.715 1.47 0 2.323-.767 2.323-1.866 0-1.018-.593-1.6-2.09-2.167-1.81-.63-2.934-1.553-2.934-3.092 0-1.7 1.433-2.964 3.59-2.964 1.14 0 1.96.26 2.458.536l-.397 1.15c-.36-.194-1.104-.52-2.107-.52-1.517 0-2.09.895-2.09 1.635 0 1.023.674 1.52 2.203 2.108 1.88.708 2.834 1.6 2.834 3.204 0 1.683-1.268 3.142-3.89 3.142-1.07 0-2.24-.31-2.833-.7l.366-1.18z"/></g><path fill="#FFF" d="M422.684 202.878h-2.37v-.837h5.767v.838h-2.38v6.783h-1.016"/><g><defs><path id="ao" d="M14.03 11.34h526.902v426.002H14.03z"/></defs><clipPath id="ap"><use xlink:href="#ao" overflow="visible"/></clipPath><path clip-path="url(#ap)" fill="#FFF" d="M426.58 208.818c0-.598.41-1.018.99-1.018s.974.42.974 1.018c0 .583-.383 1.02-.993 1.02-.572 0-.97-.437-.97-1.02M441.375 209.176c-.64.228-1.91.6-3.41.6-1.676 0-3.064-.422-4.148-1.442-.957-.908-1.548-2.363-1.548-4.063.015-3.253 2.284-5.632 6.01-5.632 1.285 0 2.29.275 2.768.5l-.346 1.153c-.593-.26-1.334-.47-2.454-.47-2.7 0-4.467 1.65-4.467 4.384 0 2.773 1.7 4.406 4.285 4.406.938 0 1.583-.13 1.913-.29v-3.255h-2.26v-1.136h3.657v5.246z"/></g><path fill="#FFF" d="M442.718 202.04h1.007v7.62h-1.007zM445.14 202.04h1.007v6.796h3.324v.825h-4.33M450.25 202.04h1.006v6.796h3.328v.825h-4.334M459.393 206.088h-3.028v2.748h3.374v.825h-4.38v-7.62h4.205v.827h-3.2v2.408h3.028"/><g><defs><path id="aq" d="M14.03 11.34h526.902v426.002H14.03z"/></defs><clipPath id="ar"><use xlink:href="#aq" overflow="visible"/></clipPath><path clip-path="url(#ar)" fill="#FFF" d="M460.56 208.46c.45.273 1.11.5 1.802.5 1.03 0 1.63-.532 1.63-1.3 0-.714-.414-1.12-1.466-1.515-1.27-.44-2.058-1.086-2.058-2.16 0-1.187 1.006-2.07 2.52-2.07.798 0 1.375.184 1.72.375l-.273.8c-.258-.133-.776-.363-1.48-.363-1.065 0-1.466.624-1.466 1.145 0 .71.468 1.06 1.543 1.47 1.32.498 1.99 1.12 1.99 2.237 0 1.176-.89 2.193-2.73 2.193-.75 0-1.57-.214-1.984-.487l.25-.826z"/><path clip-path="url(#ar)" fill="#79AD41" d="M367.592 116.075c0 1.642-1.33 2.973-2.97 2.973s-2.968-1.332-2.968-2.973 1.33-2.973 2.97-2.973 2.968 1.33 2.968 2.973M370.56 109.11c0 1.64-1.328 2.974-2.968 2.974s-2.97-1.333-2.97-2.974c0-1.642 1.33-2.97 2.97-2.97 1.64 0 2.97 1.33 2.97 2.97M140.515 126.898c0 1.642-1.327 2.97-2.966 2.97-1.643 0-2.968-1.33-2.968-2.97 0-1.642 1.325-2.974 2.967-2.974 1.638 0 2.965 1.332 2.965 2.974M135.292 120.938c0 1.64-1.33 2.97-2.97 2.97s-2.965-1.33-2.965-2.97c0-1.642 1.327-2.973 2.966-2.973s2.97 1.33 2.97 2.973M499.262 381.327c0 1.643-1.33 2.972-2.97 2.972-1.638 0-2.967-1.33-2.967-2.973 0-1.64 1.33-2.973 2.968-2.973 1.64 0 2.97 1.333 2.97 2.973"/><path clip-path="url(#ar)" fill="#C22E36" d="M502.23 374.632c0 1.642-1.33 2.972-2.97 2.972-1.64 0-2.968-1.33-2.968-2.972 0-1.64 1.328-2.974 2.97-2.974 1.64 0 2.968 1.333 2.968 2.974M509.026 377.604c0 1.64-1.33 2.974-2.97 2.974-1.635 0-2.965-1.333-2.965-2.974 0-1.642 1.33-2.972 2.967-2.972 1.64 0 2.97 1.33 2.97 2.972M515.672 380.574c0 1.642-1.326 2.974-2.966 2.974-1.64 0-2.967-1.332-2.967-2.974 0-1.64 1.327-2.97 2.966-2.97 1.64 0 2.966 1.33 2.966 2.97M33.848 355.224c0 1.64-1.33 2.97-2.968 2.97-1.64 0-2.968-1.33-2.968-2.97 0-1.642 1.328-2.974 2.968-2.974s2.968 1.332 2.968 2.974M27.077 352.476c0 1.64-1.328 2.97-2.967 2.97-1.638 0-2.968-1.33-2.968-2.97 0-1.642 1.33-2.974 2.968-2.974 1.64 0 2.967 1.332 2.967 2.974M19.966 349.504c0 1.64-1.33 2.972-2.968 2.972-1.64 0-2.968-1.332-2.968-2.972s1.327-2.973 2.968-2.973c1.64 0 2.968 1.333 2.968 2.974"/><path clip-path="url(#ar)" fill="#79AD41" d="M506.058 384.3c0 1.64-1.326 2.973-2.966 2.973-1.642 0-2.97-1.332-2.97-2.974s1.328-2.973 2.97-2.973c1.64 0 2.966 1.33 2.966 2.972M512.706 387.27c0 1.642-1.327 2.975-2.967 2.975-1.64 0-2.97-1.333-2.97-2.975 0-1.64 1.33-2.97 2.97-2.97 1.64 0 2.966 1.33 2.966 2.97"/><path clip-path="url(#ar)" fill="#CA7220" d="M261.384 430.272c0 1.64-1.33 2.973-2.97 2.973-1.636 0-2.965-1.332-2.965-2.973 0-1.643 1.33-2.974 2.965-2.974 1.64 0 2.97 1.332 2.97 2.974"/><path clip-path="url(#ar)" fill="#9E629F" d="M252.587 423.107c0 1.642-1.33 2.972-2.97 2.972s-2.966-1.33-2.966-2.973 1.33-2.974 2.968-2.974 2.97 1.333 2.97 2.974"/><path clip-path="url(#ar)" fill="#4A1B0A" d="M241.55 418.588c0 1.642-1.33 2.974-2.97 2.974-1.64 0-2.97-1.332-2.97-2.974s1.33-2.97 2.97-2.97c1.64 0 2.97 1.328 2.97 2.97M234.187 420.845c0 1.642-1.327 2.973-2.966 2.973-1.64 0-2.966-1.33-2.966-2.973s1.326-2.972 2.967-2.972c1.64 0 2.967 1.33 2.967 2.972M226.722 422.454c0 1.64-1.33 2.97-2.97 2.97-1.64 0-2.965-1.33-2.965-2.97 0-1.642 1.325-2.974 2.966-2.974 1.64 0 2.97 1.333 2.97 2.974"/><path clip-path="url(#ar)" fill="#9E629F" d="M245.23 425.796c0 1.643-1.33 2.972-2.97 2.972-1.64 0-2.968-1.33-2.968-2.972 0-1.64 1.327-2.973 2.97-2.973 1.637 0 2.967 1.332 2.967 2.973M238.58 428.217c0 1.64-1.328 2.974-2.968 2.974s-2.97-1.332-2.97-2.973c0-1.642 1.33-2.972 2.97-2.972 1.64 0 2.97 1.33 2.97 2.972"/><path clip-path="url(#ar)" fill="#CA7220" d="M254.324 432.23c0 1.64-1.328 2.974-2.967 2.974s-2.97-1.333-2.97-2.974c0-1.642 1.33-2.972 2.97-2.972s2.967 1.33 2.967 2.972M246.65 434.37c0 1.642-1.33 2.972-2.968 2.972-1.637 0-2.966-1.33-2.966-2.972 0-1.64 1.33-2.974 2.966-2.974 1.64 0 2.967 1.333 2.967 2.974"/><path clip-path="url(#ar)" fill="#79AD41" d="M80.44 411.804c0 1.642-1.33 2.974-2.97 2.974-1.637 0-2.967-1.332-2.967-2.974 0-1.64 1.33-2.97 2.968-2.97 1.64 0 2.97 1.33 2.97 2.97M78.893 419.48c0 1.642-1.328 2.974-2.967 2.974s-2.967-1.332-2.967-2.974c0-1.64 1.327-2.972 2.966-2.972s2.967 1.332 2.967 2.972M77.47 427.12c0 1.643-1.33 2.973-2.97 2.973-1.638 0-2.966-1.33-2.966-2.972s1.328-2.973 2.967-2.973c1.64 0 2.97 1.332 2.97 2.974M145.933 132.267c0 1.64-1.33 2.97-2.97 2.97-1.64 0-2.968-1.33-2.968-2.97 0-1.642 1.33-2.974 2.97-2.974 1.64 0 2.968 1.332 2.968 2.974"/><path clip-path="url(#ar)" fill="#222221" d="M215.41 296.667l-1.668-2.657c-.382-.603-.673-1.166-.954-1.71l-.034.008c-.014.63-.04 1.276-.096 1.937l-.332 3.133 3.083-.71zm-3.125 1.784l-.334 3.4-1.365.314 1.164-10.828 1.593-.368 5.8 9.22-1.41.325-1.817-2.9-3.63.838zM219.92 296.08l.943-.22c.988-.225 1.494-.898 1.307-1.702-.208-.904-.968-1.148-1.947-.932-.45.105-.756.217-.895.29l.593 2.565zm-1.66-2.978c.443-.205 1.1-.41 1.74-.56.987-.23 1.666-.198 2.2.097.435.225.747.66.872 1.204.214.924-.24 1.676-.938 2.1l.004.033c.602.06 1.048.48 1.382 1.173.458.925.786 1.562.996 1.796l-.954.222c-.167-.17-.462-.738-.863-1.565-.438-.92-.905-1.194-1.754-1.032l-.865.2.697 3.042-.922.212-1.596-6.922zM225.32 294.832l.946-.22c.988-.227 1.493-.898 1.31-1.707-.208-.9-.97-1.143-1.95-.926-.45.103-.755.215-.897.29l.59 2.562zm-1.66-2.98c.445-.205 1.105-.412 1.738-.558.988-.23 1.667-.198 2.204.098.433.226.747.66.87 1.202.214.926-.24 1.675-.934 2.1l.007.03c.594.064 1.04.486 1.375 1.176.46.927.79 1.562 1 1.8l-.956.22c-.162-.17-.462-.74-.865-1.566-.438-.922-.902-1.195-1.747-1.034l-.872.2.7 3.045-.922.21-1.6-6.924z"/></g><path fill="#222221" d="M230.958 288.416l1.39.93-.79.184-.834-.563-.018.005-.517.874-.762.178.818-1.44.712-.168zm2.652 4.963l-2.784.642.583 2.53 3.1-.72.178.764-4.025.93-1.62-7.02 3.87-.892.177.76-2.946.68.51 2.22 2.784-.644.172.75zM235.662 289.79l-2.174.504-.18-.773 5.302-1.224.178.77-2.188.506 1.44 6.248-.935.216"/><g><defs><path id="as" d="M14.03 11.34h526.902v426.002H14.03z"/></defs><clipPath id="at"><use xlink:href="#as" overflow="visible"/></clipPath><path clip-path="url(#at)" fill="#222221" d="M221.285 312.38c-.43.35-1.348.81-2.593 1.1-2.883.668-5.462-.614-6.223-3.906-.723-3.14.953-5.767 4.126-6.502 1.275-.294 2.14-.215 2.532-.114l-.078 1.132c-.556-.125-1.31-.137-2.158.06-2.397.556-3.645 2.425-3.037 5.06.564 2.457 2.368 3.696 4.858 3.12.806-.183 1.584-.534 2.058-.91l.515.96zM221.983 308.91c.346 1.5 1.485 2.65 2.942 2.314 1.466-.338 1.99-1.852 1.624-3.445-.322-1.395-1.406-2.686-2.945-2.327-1.528.353-1.977 1.916-1.622 3.458m5.528-1.397c.557 2.415-.64 4.043-2.467 4.465-1.892.44-3.55-.695-4.04-2.82-.513-2.228.562-4.01 2.474-4.453 1.954-.45 3.554.723 4.034 2.808M234.55 306.413c-.28-.968-.613-2.128-.805-3.007l-.034.006c-.05.882-.147 1.826-.284 2.873l-.483 3.702-.7.16-1.927-3.074c-.564-.913-1.066-1.75-1.46-2.54l-.018.004c.183.886.396 2.074.58 3.14l.5 3.05-.88.204-1.122-7.133 1.18-.272 2.003 3.11c.5.8.916 1.514 1.265 2.2l.032-.007c.02-.75.1-1.58.21-2.54l.493-3.69 1.18-.27 2.064 6.916-.906.207-.89-3.037zM238.22 308.087c.188-.014.456-.063.79-.14.955-.22 1.757-.768 1.52-1.792-.22-.955-1.152-1.158-2.16-.924l-.766.18.617 2.677zm-.773-3.365l.838-.193c.977-.23 1.434-.86 1.28-1.536-.19-.824-.902-.996-1.835-.78-.425.098-.665.183-.806.248l.523 2.26zm-1.59-2.66c.388-.18 1.007-.39 1.656-.536.927-.214 1.555-.196 2.083.054.432.185.756.552.883 1.105.154.676-.168 1.375-.857 1.82l.004.02c.72.01 1.642.375 1.88 1.42.142.604 0 1.12-.28 1.546-.397.564-1.158.96-2.324 1.23-.637.146-1.136.215-1.452.247l-1.592-6.904zM245.734 304l-1.163-1.855c-.268-.422-.468-.815-.67-1.197l-.02.005c-.013.443-.03.896-.07 1.355l-.23 2.19 2.154-.498zm-2.186 1.252l-.234 2.38-.954.22.81-7.58 1.12-.26 4.06 6.456-.986.228-1.275-2.03-2.542.586z"/></g><path fill="#222221" d="M248.48 305.876l2.66-6.613-.006-.03-3.635.84-.18-.76 4.837-1.122.13.555-2.644 6.59.007.03 4.002-.926.174.76-5.223 1.21"/><g><defs><path id="au" d="M14.03 11.34h526.902v426.002H14.03z"/></defs><clipPath id="av"><use xlink:href="#au" overflow="visible"/></clipPath><path clip-path="url(#av)" fill="#BDCC39" d="M191.47 337.843L175.784 315s-3.005-4.63-1.166-14.36c1.837-9.73 9.85-11.734 15.775-11.734s13.34 1.83 15.315 11.734c1.974 9.903-1.578 14.36-2.333 15.68-.756 1.317-11.903 21.523-11.903 21.523"/></g><path fill="#FFF" d="M197.218 298.3h1.767v14.78h-1.767z"/><g><defs><path id="aw" d="M14.03 11.34h526.902v426.002H14.03z"/></defs><clipPath id="ax"><use xlink:href="#aw" overflow="visible"/></clipPath><path clip-path="url(#ax)" fill="#FFF" d="M195.574 312.6c-.646.356-1.956.7-3.622.7-3.868 0-6.775-2.636-6.775-7.477 0-4.62 2.907-7.762 7.167-7.762 1.7 0 2.785.396 3.253.653l-.426 1.557c-.68-.344-1.63-.612-2.77-.612-3.22 0-5.355 2.218-5.355 6.104 0 3.614 1.935 5.943 5.273 5.943 1.077 0 2.172-.245 2.887-.626l.37 1.52z"/></g><path fill="#FFF" d="M181.71 298.3h1.766v14.78h-1.765z"/><g><defs><path id="ay" d="M14.03 11.34h526.902v426.002H14.03z"/></defs><clipPath id="az"><use xlink:href="#ay" overflow="visible"/></clipPath><path clip-path="url(#az)" fill="#222221" d="M515.72 109.823c0 8.957-7.25 16.217-16.193 16.217s-16.197-7.26-16.197-16.217c0-8.955 7.254-16.217 16.197-16.217s16.192 7.263 16.192 16.217"/></g><path fill="#FFF" d="M499.524 113h-.075l-3.987-5.856v8.93h-2.202v-12.5h2.385l3.88 5.91 3.883-5.91h2.384v12.5h-2.24v-8.963"/></svg>